<svg width="1060" height="158" viewBox="0 0 1060 158" fill="none" xmlns="http://www.w3.org/2000/svg">
<path d="M255.926 129L231.722 41.7273H245.571L262.574 109.312H263.384L281.068 41.7273H294.79L312.474 109.355H313.284L330.244 41.7273H344.136L319.889 129H306.636L288.27 63.6307H287.588L269.222 129H255.926ZM376.885 130.321C370.436 130.321 364.882 128.943 360.223 126.188C355.592 123.403 352.013 119.497 349.484 114.469C346.984 109.412 345.734 103.489 345.734 96.6989C345.734 89.9943 346.984 84.0852 349.484 78.9716C352.013 73.858 355.536 69.8665 360.053 66.9972C364.598 64.1278 369.911 62.6932 375.99 62.6932C379.683 62.6932 383.263 63.304 386.729 64.5256C390.195 65.7472 393.305 67.6648 396.061 70.2784C398.817 72.892 400.99 76.2869 402.581 80.4631C404.172 84.6108 404.967 89.6534 404.967 95.5909V100.108H352.936V90.5625H392.482C392.482 87.2102 391.8 84.2415 390.436 81.6562C389.072 79.0426 387.155 76.983 384.683 75.4773C382.24 73.9716 379.371 73.2188 376.075 73.2188C372.496 73.2188 369.371 74.0994 366.7 75.8608C364.058 77.5937 362.013 79.8665 360.564 82.679C359.143 85.4631 358.433 88.4886 358.433 91.7557V99.2131C358.433 103.588 359.2 107.31 360.734 110.378C362.297 113.446 364.47 115.79 367.254 117.409C370.038 119 373.291 119.795 377.013 119.795C379.428 119.795 381.629 119.455 383.618 118.773C385.607 118.062 387.325 117.011 388.774 115.619C390.223 114.227 391.331 112.509 392.098 110.463L404.158 112.636C403.192 116.187 401.459 119.298 398.959 121.969C396.487 124.611 393.376 126.67 389.626 128.148C385.905 129.597 381.658 130.321 376.885 130.321ZM438.153 130.449C434.005 130.449 430.255 129.682 426.903 128.148C423.55 126.585 420.894 124.327 418.934 121.372C417.002 118.418 416.036 114.795 416.036 110.506C416.036 106.812 416.746 103.773 418.167 101.386C419.587 99 421.505 97.1108 423.92 95.7188C426.335 94.3267 429.033 93.2756 432.016 92.5653C434.999 91.8551 438.039 91.3153 441.136 90.946C445.056 90.4915 448.238 90.1222 450.681 89.8381C453.124 89.5256 454.9 89.0284 456.008 88.3466C457.116 87.6648 457.67 86.5568 457.67 85.0227V84.7244C457.67 81.0028 456.619 78.1193 454.516 76.0739C452.442 74.0284 449.346 73.0057 445.227 73.0057C440.937 73.0057 437.556 73.9574 435.085 75.8608C432.641 77.7358 430.951 79.8239 430.013 82.125L418.039 79.3977C419.46 75.4205 421.533 72.2102 424.261 69.767C427.016 67.2955 430.184 65.5057 433.763 64.3977C437.343 63.2614 441.107 62.6932 445.056 62.6932C447.67 62.6932 450.44 63.0057 453.366 63.6307C456.32 64.2273 459.076 65.3352 461.633 66.9545C464.218 68.5739 466.335 70.8892 467.982 73.9006C469.63 76.8835 470.454 80.7614 470.454 85.5341V129H458.011V120.051H457.499C456.675 121.699 455.44 123.318 453.792 124.909C452.144 126.5 450.028 127.821 447.442 128.872C444.857 129.923 441.761 130.449 438.153 130.449ZM440.923 120.222C444.445 120.222 447.457 119.526 449.957 118.134C452.485 116.741 454.403 114.923 455.71 112.679C457.045 110.406 457.712 107.977 457.712 105.392V96.9545C457.258 97.4091 456.377 97.8352 455.07 98.233C453.792 98.6023 452.329 98.929 450.681 99.2131C449.033 99.4687 447.428 99.7102 445.866 99.9375C444.303 100.136 442.996 100.307 441.945 100.449C439.474 100.761 437.215 101.287 435.17 102.026C433.153 102.764 431.533 103.83 430.312 105.222C429.119 106.585 428.522 108.403 428.522 110.676C428.522 113.83 429.687 116.216 432.016 117.835C434.346 119.426 437.315 120.222 440.923 120.222ZM500.166 41.7273V129H487.425V41.7273H500.166ZM547.862 63.5455V73.7727H512.109V63.5455H547.862ZM521.697 47.8636H534.438V109.781C534.438 112.253 534.808 114.114 535.546 115.364C536.285 116.585 537.237 117.423 538.401 117.878C539.594 118.304 540.887 118.517 542.279 118.517C543.302 118.517 544.197 118.446 544.964 118.304C545.731 118.162 546.327 118.048 546.754 117.963L549.055 128.489C548.316 128.773 547.265 129.057 545.901 129.341C544.538 129.653 542.833 129.824 540.788 129.852C537.435 129.909 534.31 129.312 531.413 128.062C528.515 126.812 526.171 124.881 524.381 122.267C522.592 119.653 521.697 116.372 521.697 112.423V47.8636ZM576.104 90.1364V129H563.362V41.7273H575.933V74.1989H576.743C578.277 70.6761 580.621 67.8778 583.774 65.804C586.928 63.7301 591.047 62.6932 596.132 62.6932C600.621 62.6932 604.541 63.6165 607.893 65.4631C611.274 67.3097 613.888 70.0653 615.734 73.7301C617.609 77.3665 618.547 81.9119 618.547 87.3665V129H605.805V88.9006C605.805 84.0994 604.57 80.3778 602.098 77.7358C599.626 75.0653 596.189 73.7301 591.786 73.7301C588.774 73.7301 586.075 74.3693 583.689 75.6477C581.331 76.9261 579.47 78.8011 578.107 81.2727C576.771 83.7159 576.104 86.6705 576.104 90.1364ZM685.418 129L661.214 41.7273H675.063L692.066 109.312H692.876L710.56 41.7273H724.282L741.967 109.355H742.776L759.737 41.7273H773.629L749.381 129H736.129L717.762 63.6307H717.08L698.714 129H685.418ZM784.612 129V63.5455H797.354V129H784.612ZM791.047 53.446C788.831 53.446 786.928 52.7074 785.337 51.2301C783.774 49.7244 782.993 47.9347 782.993 45.8608C782.993 43.7585 783.774 41.9687 785.337 40.4915C786.928 38.9858 788.831 38.233 791.047 38.233C793.263 38.233 795.152 38.9858 796.714 40.4915C798.305 41.9687 799.101 43.7585 799.101 45.8608C799.101 47.9347 798.305 49.7244 796.714 51.2301C795.152 52.7074 793.263 53.446 791.047 53.446ZM813.131 129V120.264L848.586 75.2216V74.625H814.282V63.5455H864.481V72.8352L830.39 117.324V117.92H865.674V129H813.131ZM899.754 130.449C895.607 130.449 891.857 129.682 888.504 128.148C885.152 126.585 882.496 124.327 880.536 121.372C878.604 118.418 877.638 114.795 877.638 110.506C877.638 106.812 878.348 103.773 879.768 101.386C881.189 99 883.107 97.1108 885.521 95.7188C887.936 94.3267 890.635 93.2756 893.618 92.5653C896.601 91.8551 899.641 91.3153 902.737 90.946C906.658 90.4915 909.839 90.1222 912.283 89.8381C914.726 89.5256 916.501 89.0284 917.609 88.3466C918.717 87.6648 919.271 86.5568 919.271 85.0227V84.7244C919.271 81.0028 918.22 78.1193 916.118 76.0739C914.044 74.0284 910.947 73.0057 906.828 73.0057C902.538 73.0057 899.158 73.9574 896.686 75.8608C894.243 77.7358 892.553 79.8239 891.615 82.125L879.641 79.3977C881.061 75.4205 883.135 72.2102 885.862 69.767C888.618 67.2955 891.786 65.5057 895.365 64.3977C898.945 63.2614 902.709 62.6932 906.658 62.6932C909.271 62.6932 912.041 63.0057 914.967 63.6307C917.922 64.2273 920.678 65.3352 923.234 66.9545C925.82 68.5739 927.936 70.8892 929.584 73.9006C931.232 76.8835 932.055 80.7614 932.055 85.5341V129H919.612V120.051H919.101C918.277 121.699 917.041 123.318 915.393 124.909C913.746 126.5 911.629 127.821 909.044 128.872C906.459 129.923 903.362 130.449 899.754 130.449ZM902.524 120.222C906.047 120.222 909.058 119.526 911.558 118.134C914.087 116.741 916.004 114.923 917.311 112.679C918.646 110.406 919.314 107.977 919.314 105.392V96.9545C918.859 97.4091 917.979 97.8352 916.672 98.233C915.393 98.6023 913.93 98.929 912.283 99.2131C910.635 99.4687 909.03 99.7102 907.467 99.9375C905.905 100.136 904.598 100.307 903.547 100.449C901.075 100.761 898.817 101.287 896.771 102.026C894.754 102.764 893.135 103.83 891.913 105.222C890.72 106.585 890.124 108.403 890.124 110.676C890.124 113.83 891.288 116.216 893.618 117.835C895.947 119.426 898.916 120.222 902.524 120.222ZM949.026 129V63.5455H961.342V73.9432H962.023C963.217 70.4205 965.319 67.6506 968.33 65.6335C971.37 63.5881 974.808 62.5653 978.643 62.5653C979.438 62.5653 980.376 62.5937 981.455 62.6506C982.563 62.7074 983.43 62.7784 984.055 62.8636V75.0511C983.543 74.9091 982.634 74.7528 981.327 74.5824C980.021 74.3835 978.714 74.2841 977.407 74.2841C974.396 74.2841 971.711 74.9233 969.353 76.2017C967.023 77.4517 965.177 79.1989 963.813 81.4432C962.45 83.6591 961.768 86.1875 961.768 89.0284V129H949.026ZM1017.24 130.278C1011.96 130.278 1007.24 128.929 1003.09 126.23C998.973 123.503 995.734 119.625 993.376 114.597C991.047 109.54 989.882 103.474 989.882 96.4006C989.882 89.3267 991.061 83.2756 993.419 78.2472C995.805 73.2187 999.072 69.3693 1003.22 66.6989C1007.37 64.0284 1012.07 62.6932 1017.33 62.6932C1021.39 62.6932 1024.65 63.375 1027.13 64.7386C1029.63 66.0739 1031.56 67.6364 1032.92 69.4261C1034.31 71.2159 1035.39 72.7926 1036.16 74.1562H1036.93V41.7273H1049.67V129H1037.23V118.815H1036.16C1035.39 120.207 1034.29 121.798 1032.84 123.588C1031.42 125.378 1029.46 126.94 1026.96 128.276C1024.46 129.611 1021.22 130.278 1017.24 130.278ZM1020.05 119.412C1023.72 119.412 1026.81 118.446 1029.34 116.514C1031.9 114.554 1033.83 111.841 1035.14 108.375C1036.47 104.909 1037.14 100.875 1037.14 96.2727C1037.14 91.7273 1036.49 87.75 1035.18 84.3409C1033.87 80.9318 1031.96 78.2756 1029.43 76.3722C1026.9 74.4687 1023.77 73.517 1020.05 73.517C1016.22 73.517 1013.02 74.5114 1010.46 76.5C1007.91 78.4886 1005.98 81.2017 1004.67 84.6392C1003.39 88.0767 1002.75 91.9545 1002.75 96.2727C1002.75 100.648 1003.4 104.582 1004.71 108.077C1006.02 111.571 1007.95 114.341 1010.51 116.386C1013.09 118.403 1016.27 119.412 1020.05 119.412Z" fill="white"/>
<path d="M117.434 5.30239C118.799 6.15307 119.911 7.33247 120.663 8.72496C121.415 10.1174 121.78 11.6752 121.723 13.2456L121.601 14.4425L114.878 52.7529C114.449 55.2029 114.545 57.7121 115.159 60.1248L115.711 61.9111L132.66 107.702C140.901 109.28 148.205 111.329 153.889 113.841C157.316 115.355 160.668 117.25 163.29 119.699C165.921 122.156 168.553 125.892 168.553 130.797C168.553 138.487 162.344 143.22 158.065 145.668C153.167 148.47 146.697 150.682 139.524 152.414C125.029 155.924 105.495 158 84.2763 158C63.0574 158 43.524 155.924 29.0285 152.414C21.8557 150.682 15.3851 148.47 10.4877 145.668C6.20835 143.22 0 138.487 0 130.797C0 125.901 2.62193 122.156 5.26259 119.699C7.88452 117.25 11.2368 115.346 14.6641 113.841C19.6457 111.638 25.8541 109.797 32.849 108.31L35.9017 107.693L58.9372 45.4354C61.346 38.922 65.6283 33.2116 71.279 28.9778L73.208 27.6267L107.125 5.4112C108.643 4.41672 110.429 3.87545 112.261 3.8545C114.094 3.83355 115.893 4.34289 117.434 5.30239ZM116.329 117.341C107.125 120.188 95.9532 121.73 84.2763 121.73C72.5993 121.73 61.4281 120.188 52.2232 117.341L51.7082 118.737C51.1465 120.259 50.1749 121.608 48.8941 122.645C47.6132 123.681 46.0696 124.367 44.423 124.631C34.7125 126.182 27.2306 128.222 22.4362 130.344C21.4998 130.752 22.9419 131.514 25.0769 132.303L27.0433 132.964L30.096 133.889L33.5794 134.823C46.1928 137.879 64.1249 139.865 84.2763 139.865C103.089 139.865 119.953 138.142 132.379 135.422L135.376 134.724L138.457 133.889L140.479 133.291L142.521 132.638C145.143 131.731 147.175 130.806 146.116 130.344C141.322 128.222 133.849 126.182 124.13 124.631C122.483 124.367 120.939 123.681 119.659 122.645C118.378 121.608 117.406 120.259 116.844 118.737L116.329 117.341ZM99.4648 32.3237L83.7051 42.6607C80.8904 44.5053 78.6472 47.0568 77.2158 50.0417L76.5697 51.5651L58.5439 100.258C65.286 102.262 74.1819 103.613 84.2763 103.613C93.2564 103.613 101.281 102.543 107.686 100.911L110.009 100.267L98.0789 68.0317C96.1827 62.9094 95.501 57.4396 96.0843 52.0275L96.4121 49.7243L99.4648 32.3237ZM151.903 25.8948C155.925 34.0056 162.085 40.946 169.761 46.0157L171.877 47.3486C174.34 48.7994 174.761 49.2166 172.607 50.5948L171.877 51.0391C163.963 55.7443 157.471 62.3876 153.055 70.2986L150.911 74.37C149.881 76.1019 149.338 75.6847 147.746 72.4839C143.724 64.3731 137.565 57.4327 129.889 52.363L127.772 51.0391C125.094 49.4432 125.057 49.0261 127.098 47.7567L127.772 47.3486C136.421 42.2044 143.355 34.756 147.746 25.8948C149.338 22.694 149.871 22.2769 150.911 24.0088L151.538 25.1694L151.903 25.8948ZM43.0465 0.813955L43.7019 1.92926C46.6422 7.18845 51.0808 11.686 56.5869 15.0319L58.7031 16.2197C60.501 17.1718 60.8662 17.4529 59.3586 18.3234L58.7031 18.6861C53.0825 21.5998 48.3223 25.8536 44.8724 31.0452L42.9903 34.1644C42.2692 35.2163 41.8853 35.1256 41.2298 34.0919L40.5744 32.9856C37.5188 27.6147 33.0799 23.1009 27.6894 19.883L24.5057 18.0786C23.8408 17.6433 23.7846 17.3532 24.4401 16.8817L25.5638 16.2197C31.1878 13.3073 35.9514 9.05339 39.4039 3.86065L40.5744 1.92926C41.8104 -0.274151 42.2037 -0.509908 43.0465 0.813955Z" fill="white"/>
</svg>
