<svg width="174" height="158" viewBox="0 0 174 158" fill="none" xmlns="http://www.w3.org/2000/svg">
<path d="M117.434 5.30239C118.799 6.15307 119.911 7.33247 120.663 8.72496C121.415 10.1174 121.78 11.6752 121.723 13.2456L121.601 14.4425L114.878 52.7529C114.449 55.2029 114.545 57.7121 115.159 60.1248L115.711 61.9111L132.66 107.702C140.901 109.28 148.205 111.329 153.889 113.841C157.316 115.355 160.668 117.25 163.29 119.699C165.921 122.156 168.553 125.892 168.553 130.797C168.553 138.487 162.344 143.22 158.065 145.668C153.167 148.47 146.697 150.682 139.524 152.414C125.029 155.924 105.495 158 84.2763 158C63.0574 158 43.524 155.924 29.0285 152.414C21.8557 150.682 15.3851 148.47 10.4877 145.668C6.20835 143.22 0 138.487 0 130.797C0 125.901 2.62193 122.156 5.26259 119.699C7.88452 117.25 11.2368 115.346 14.6641 113.841C19.6457 111.638 25.8541 109.797 32.849 108.31L35.9017 107.693L58.9372 45.4354C61.346 38.922 65.6283 33.2116 71.279 28.9778L73.208 27.6267L107.125 5.4112C108.643 4.41672 110.429 3.87545 112.261 3.8545C114.094 3.83355 115.893 4.34289 117.434 5.30239ZM116.329 117.341C107.125 120.188 95.9532 121.73 84.2763 121.73C72.5993 121.73 61.4281 120.188 52.2232 117.341L51.7082 118.737C51.1465 120.259 50.1749 121.608 48.8941 122.645C47.6132 123.681 46.0696 124.367 44.423 124.631C34.7125 126.182 27.2306 128.222 22.4362 130.344C21.4998 130.752 22.9419 131.514 25.0769 132.303L27.0433 132.964L30.096 133.889L33.5794 134.823C46.1928 137.879 64.1249 139.865 84.2763 139.865C103.089 139.865 119.953 138.142 132.379 135.422L135.376 134.724L138.457 133.889L140.479 133.291L142.521 132.638C145.143 131.731 147.175 130.806 146.116 130.344C141.322 128.222 133.849 126.182 124.13 124.631C122.483 124.367 120.939 123.681 119.659 122.645C118.378 121.608 117.406 120.259 116.844 118.737L116.329 117.341ZM99.4648 32.3237L83.7051 42.6607C80.8904 44.5053 78.6472 47.0568 77.2158 50.0417L76.5697 51.5651L58.5439 100.258C65.286 102.262 74.1819 103.613 84.2763 103.613C93.2564 103.613 101.281 102.543 107.686 100.911L110.009 100.267L98.0789 68.0317C96.1827 62.9094 95.501 57.4396 96.0843 52.0275L96.4121 49.7243L99.4648 32.3237ZM151.903 25.8948C155.925 34.0056 162.085 40.946 169.761 46.0157L171.877 47.3486C174.34 48.7994 174.761 49.2166 172.607 50.5948L171.877 51.0391C163.963 55.7443 157.471 62.3876 153.055 70.2986L150.911 74.37C149.881 76.1019 149.338 75.6847 147.746 72.4839C143.724 64.3731 137.565 57.4327 129.889 52.363L127.772 51.0391C125.094 49.4432 125.057 49.0261 127.098 47.7567L127.772 47.3486C136.421 42.2044 143.355 34.756 147.746 25.8948C149.338 22.694 149.871 22.2769 150.911 24.0088L151.538 25.1694L151.903 25.8948ZM43.0465 0.813955L43.7019 1.92926C46.6422 7.18845 51.0808 11.686 56.5869 15.0319L58.7031 16.2197C60.501 17.1718 60.8662 17.4529 59.3586 18.3234L58.7031 18.6861C53.0825 21.5998 48.3223 25.8536 44.8724 31.0452L42.9903 34.1644C42.2692 35.2163 41.8853 35.1256 41.2298 34.0919L40.5744 32.9856C37.5188 27.6147 33.0799 23.1009 27.6894 19.883L24.5057 18.0786C23.8408 17.6433 23.7846 17.3532 24.4401 16.8817L25.5638 16.2197C31.1878 13.3073 35.9514 9.05339 39.4039 3.86065L40.5744 1.92926C41.8104 -0.274151 42.2037 -0.509908 43.0465 0.813955Z" fill="#F97316"/>
</svg>
